<svg width="129" height="28" viewBox="0 0 129 28" fill="none" xmlns="http://www.w3.org/2000/svg">
<rect y="1" width="129" height="27" rx="5" fill="#FABBA7"/>
<path d="M21.774 14.333H23.399V20.17H21.774V14.333ZM20.435 12.513C19.317 13.787 17.198 15.113 15.092 15.88C14.923 15.49 14.52 14.866 14.208 14.515C16.405 13.826 18.485 12.435 19.538 11.122H21.189C22.645 12.747 24.725 13.852 26.792 14.372C26.415 14.775 26.051 15.36 25.791 15.828C23.906 15.152 21.605 13.839 20.435 12.513ZM17.471 14.346H19.044V15.607C19.044 17.141 18.654 19.065 15.859 20.235C15.651 19.845 15.157 19.273 14.819 18.987C17.172 18.077 17.471 16.66 17.471 15.555V14.346ZM14.728 8.977H26.298V10.407H14.728V8.977ZM17.315 7.963H18.862V11.551H17.315V7.963ZM21.982 7.963H23.529V11.551H21.982V7.963ZM28.781 8.561H30.354V12.331C30.354 14.619 30.146 18.025 28.768 20.17C28.469 19.91 27.78 19.52 27.377 19.364C28.677 17.362 28.781 14.411 28.781 12.331V8.561ZM29.652 8.561H38.713V11.889H29.652V10.628H37.14V9.822H29.652V8.561ZM30.068 12.461H39.051V13.683H30.068V12.461ZM30.692 16.504H38.414V17.739H30.692V16.504ZM29.808 18.636H39.35V19.858H29.808V18.636ZM33.76 15.529H35.281V19.468H33.76V15.529ZM30.432 14.671C32.252 14.632 35.06 14.554 37.712 14.45L37.673 15.581C35.099 15.711 32.369 15.815 30.497 15.88L30.432 14.671ZM32.798 12.734L34.384 13.254C33.812 14.073 33.201 14.957 32.72 15.529L31.511 15.048C31.966 14.424 32.512 13.449 32.798 12.734ZM35.372 14.021L36.568 13.293C37.452 13.891 38.609 14.801 39.155 15.451L37.868 16.257C37.361 15.62 36.269 14.671 35.372 14.021ZM46.5 12.409C47.41 12.409 48.151 13.15 48.151 14.06C48.151 14.983 47.41 15.724 46.5 15.724C45.577 15.724 44.836 14.983 44.836 14.06C44.836 13.15 45.577 12.409 46.5 12.409ZM53.676 9.575H65.35V11.057H53.676V9.575ZM54.521 12.682H64.557V14.151H54.521V12.682ZM58.655 7.963H60.228V13.722H58.655V7.963ZM56.718 15.62H58.265V18.103C58.265 18.519 58.369 18.571 58.993 18.571C59.253 18.571 60.423 18.571 60.774 18.571C61.294 18.571 61.398 18.389 61.45 17.154C61.775 17.388 62.425 17.622 62.841 17.713C62.672 19.494 62.23 19.962 60.917 19.962C60.553 19.962 59.136 19.962 58.811 19.962C57.134 19.962 56.718 19.52 56.718 18.129V15.62ZM57.654 14.879L58.707 13.943C59.552 14.385 60.605 15.1 61.099 15.672L59.968 16.712C59.526 16.14 58.512 15.373 57.654 14.879ZM62.061 16.088L63.361 15.425C64.284 16.4 65.246 17.726 65.597 18.714L64.18 19.468C63.868 18.519 62.971 17.128 62.061 16.088ZM54.898 15.724L56.302 16.166C56.003 17.466 55.535 18.779 54.612 19.611L53.286 18.753C54.131 18.051 54.651 16.92 54.898 15.724ZM69.367 15.802H77.921V16.777H69.367V15.802ZM68.717 17.336H78.48V18.337H68.717V17.336ZM76.569 13.969L77.453 14.801C75.412 15.204 72.357 15.36 69.809 15.373C69.796 15.113 69.653 14.697 69.549 14.463C72.006 14.437 74.957 14.268 76.569 13.969ZM72.864 14.84H74.398V18.844C74.398 19.559 74.216 19.871 73.657 20.04C73.098 20.196 72.318 20.196 71.226 20.196C71.135 19.845 70.94 19.364 70.758 19.026C71.447 19.065 72.357 19.065 72.565 19.052C72.786 19.039 72.864 18.987 72.864 18.792V14.84ZM69.159 10.849H73.384V11.889H69.159V10.849ZM73.748 10.849H78.311V11.889H73.748V10.849ZM70.732 10.134H71.85V14.073H70.732V10.134ZM75.321 10.134H76.452V13.956H75.321V10.134ZM70.797 11.473L71.603 11.759C71.148 12.63 70.316 13.54 69.471 13.982C69.302 13.735 68.977 13.358 68.743 13.163C69.549 12.825 70.368 12.136 70.797 11.473ZM75.321 11.473L76.14 11.759C75.685 12.617 74.853 13.527 74.021 13.956C73.852 13.709 73.527 13.332 73.293 13.137C74.086 12.812 74.905 12.136 75.321 11.473ZM76.543 11.603C77.011 12.188 77.882 12.812 78.61 13.137C78.363 13.332 78.012 13.722 77.83 13.995C77.089 13.553 76.205 12.695 75.724 11.954L76.543 11.603ZM71.759 11.941C72.084 12.11 73.15 12.682 73.41 12.864L72.682 13.644C72.37 13.332 71.525 12.669 71.135 12.383L71.759 11.941ZM72.084 7.963H73.709V9.692H72.084V7.963ZM68.197 8.912H78.428V10.199H68.197V8.912ZM67.3 8.912H68.743V13.085C68.743 15.152 68.548 18.272 67.43 20.222C67.17 19.949 66.559 19.442 66.234 19.286C67.222 17.518 67.3 14.957 67.3 13.085V8.912ZM80.794 9.926C81.132 9.978 81.678 10.017 82.029 10.017H89.114C89.504 10.017 89.959 9.978 90.323 9.926V11.72C89.946 11.681 89.491 11.655 89.114 11.655H82.029C81.678 11.655 81.132 11.681 80.794 11.72V9.926ZM84.551 17.934V10.927H86.358V17.934H84.551ZM79.962 16.868C80.378 16.933 80.846 16.972 81.236 16.972H89.816C90.271 16.972 90.687 16.907 91.025 16.868V18.74C90.661 18.701 90.115 18.688 89.816 18.688H81.236C80.859 18.688 80.391 18.701 79.962 18.74V16.868ZM102.426 8.912C102.4 9.276 102.387 9.692 102.387 10.225C102.387 10.888 102.387 12.149 102.387 12.786C102.387 15.594 101.841 16.79 100.866 17.856C100.008 18.805 98.669 19.429 97.72 19.741L96.355 18.298C97.655 17.999 98.695 17.505 99.488 16.66C100.372 15.685 100.554 14.71 100.554 12.682C100.554 12.032 100.554 10.784 100.554 10.225C100.554 9.692 100.515 9.276 100.463 8.912H102.426ZM96.407 9.029C96.381 9.328 96.355 9.614 96.355 10.017C96.355 10.589 96.355 13.683 96.355 14.411C96.355 14.736 96.381 15.243 96.407 15.542H94.509C94.535 15.308 94.574 14.801 94.574 14.398C94.574 13.657 94.574 10.589 94.574 10.017C94.574 9.783 94.561 9.328 94.522 9.029H96.407ZM117.402 10.212C117.272 10.381 117.025 10.693 116.908 10.875C116.297 11.889 115.062 13.54 113.775 14.45L112.423 13.371C113.476 12.734 114.49 11.59 114.828 10.953C114.035 10.953 108.861 10.953 108.042 10.953C107.509 10.953 107.067 10.979 106.456 11.044V9.224C106.963 9.302 107.509 9.367 108.042 9.367C108.861 9.367 114.373 9.367 115.049 9.367C115.413 9.367 116.128 9.315 116.375 9.25L117.402 10.212ZM112.111 11.954C112.111 15.178 112.033 17.83 108.497 19.741L106.976 18.506C107.405 18.363 107.873 18.142 108.354 17.778C109.992 16.634 110.304 15.269 110.304 13.137C110.304 12.721 110.291 12.383 110.226 11.954H112.111Z" fill="#545454"/>
</svg>
