<svg width="82" height="28" viewBox="0 0 82 28" fill="none" xmlns="http://www.w3.org/2000/svg">
<rect y="1" width="77" height="27" rx="5" fill="#DACCF7"/>
<path d="M16.145 17.947H24.972V19.377H16.145V17.947ZM15.157 11.59H25.882V20.105H24.296V13.02H16.665V20.118H15.157V11.59ZM21.02 12.175H22.515V14.515C22.515 14.853 22.554 14.892 22.801 14.892C22.905 14.892 23.334 14.892 23.451 14.892C23.685 14.892 23.737 14.788 23.776 14.216C24.036 14.424 24.66 14.658 25.063 14.749C24.894 15.932 24.504 16.244 23.633 16.244C23.373 16.244 22.801 16.244 22.554 16.244C21.28 16.244 21.02 15.828 21.02 14.528V12.175ZM14.624 8.678H26.311V10.186H14.624V8.678ZM18.186 9.822H19.72V12.409H18.186V9.822ZM21.033 9.822H22.593V12.409H21.033V9.822ZM18.264 11.876H19.72V13.176C19.72 14.463 19.33 15.984 17.536 16.92C17.328 16.634 16.717 16.114 16.405 15.919C18.043 15.126 18.264 14.06 18.264 13.124V11.876ZM28.794 9.926C29.132 9.978 29.678 10.017 30.029 10.017H37.114C37.504 10.017 37.959 9.978 38.323 9.926V11.72C37.946 11.681 37.491 11.655 37.114 11.655H30.029C29.678 11.655 29.132 11.681 28.794 11.72V9.926ZM32.551 17.934V10.927H34.358V17.934H32.551ZM27.962 16.868C28.378 16.933 28.846 16.972 29.236 16.972H37.816C38.271 16.972 38.687 16.907 39.025 16.868V18.74C38.661 18.701 38.115 18.688 37.816 18.688H29.236C28.859 18.688 28.391 18.701 27.962 18.74V16.868ZM50.426 8.912C50.4 9.276 50.387 9.692 50.387 10.225C50.387 10.888 50.387 12.149 50.387 12.786C50.387 15.594 49.841 16.79 48.866 17.856C48.008 18.805 46.669 19.429 45.72 19.741L44.355 18.298C45.655 17.999 46.695 17.505 47.488 16.66C48.372 15.685 48.554 14.71 48.554 12.682C48.554 12.032 48.554 10.784 48.554 10.225C48.554 9.692 48.515 9.276 48.463 8.912H50.426ZM44.407 9.029C44.381 9.328 44.355 9.614 44.355 10.017C44.355 10.589 44.355 13.683 44.355 14.411C44.355 14.736 44.381 15.243 44.407 15.542H42.509C42.535 15.308 42.574 14.801 42.574 14.398C42.574 13.657 42.574 10.589 42.574 10.017C42.574 9.783 42.561 9.328 42.522 9.029H44.407ZM65.402 10.212C65.272 10.381 65.025 10.693 64.908 10.875C64.297 11.889 63.062 13.54 61.775 14.45L60.423 13.371C61.476 12.734 62.49 11.59 62.828 10.953C62.035 10.953 56.861 10.953 56.042 10.953C55.509 10.953 55.067 10.979 54.456 11.044V9.224C54.963 9.302 55.509 9.367 56.042 9.367C56.861 9.367 62.373 9.367 63.049 9.367C63.413 9.367 64.128 9.315 64.375 9.25L65.402 10.212ZM60.111 11.954C60.111 15.178 60.033 17.83 56.497 19.741L54.976 18.506C55.405 18.363 55.873 18.142 56.354 17.778C57.992 16.634 58.304 15.269 58.304 13.137C58.304 12.721 58.291 12.383 58.226 11.954H60.111Z" fill="#545454"/>
</svg>
