<svg width="90" height="28" viewBox="0 0 90 28" fill="none" xmlns="http://www.w3.org/2000/svg">
<rect y="1" width="90" height="27" rx="5" fill="#FFE068"/>
<path d="M15.781 9.757H25.219V11.473H15.781V9.757ZM14.702 17.297H26.311V19.091H14.702V17.297ZM30.77 11.798V12.604H36.23V11.798H30.77ZM30.77 13.878V14.684H36.23V13.878H30.77ZM30.77 9.731V10.537H36.23V9.731H30.77ZM29.262 8.366H37.816V16.049H29.262V8.366ZM34.098 14.996H35.684V18.116C35.684 18.532 35.775 18.597 36.243 18.597C36.464 18.597 37.335 18.597 37.608 18.597C38.063 18.597 38.141 18.376 38.206 16.842C38.518 17.102 39.207 17.362 39.636 17.466C39.467 19.533 39.051 20.066 37.751 20.066C37.426 20.066 36.334 20.066 36.035 20.066C34.475 20.066 34.098 19.598 34.098 18.116V14.996ZM30.913 15.529H32.59C32.369 17.895 31.758 19.429 28.248 20.222C28.118 19.806 27.702 19.169 27.377 18.831C30.393 18.272 30.744 17.271 30.913 15.529ZM41.794 9.926C42.132 9.978 42.678 10.017 43.029 10.017H50.114C50.504 10.017 50.959 9.978 51.323 9.926V11.72C50.946 11.681 50.491 11.655 50.114 11.655H43.029C42.678 11.655 42.132 11.681 41.794 11.72V9.926ZM45.551 17.934V10.927H47.358V17.934H45.551ZM40.962 16.868C41.378 16.933 41.846 16.972 42.236 16.972H50.816C51.271 16.972 51.687 16.907 52.025 16.868V18.74C51.661 18.701 51.115 18.688 50.816 18.688H42.236C41.859 18.688 41.391 18.701 40.962 18.74V16.868ZM63.426 8.912C63.4 9.276 63.387 9.692 63.387 10.225C63.387 10.888 63.387 12.149 63.387 12.786C63.387 15.594 62.841 16.79 61.866 17.856C61.008 18.805 59.669 19.429 58.72 19.741L57.355 18.298C58.655 17.999 59.695 17.505 60.488 16.66C61.372 15.685 61.554 14.71 61.554 12.682C61.554 12.032 61.554 10.784 61.554 10.225C61.554 9.692 61.515 9.276 61.463 8.912H63.426ZM57.407 9.029C57.381 9.328 57.355 9.614 57.355 10.017C57.355 10.589 57.355 13.683 57.355 14.411C57.355 14.736 57.381 15.243 57.407 15.542H55.509C55.535 15.308 55.574 14.801 55.574 14.398C55.574 13.657 55.574 10.589 55.574 10.017C55.574 9.783 55.561 9.328 55.522 9.029H57.407ZM78.402 10.212C78.272 10.381 78.025 10.693 77.908 10.875C77.297 11.889 76.062 13.54 74.775 14.45L73.423 13.371C74.476 12.734 75.49 11.59 75.828 10.953C75.035 10.953 69.861 10.953 69.042 10.953C68.509 10.953 68.067 10.979 67.456 11.044V9.224C67.963 9.302 68.509 9.367 69.042 9.367C69.861 9.367 75.373 9.367 76.049 9.367C76.413 9.367 77.128 9.315 77.375 9.25L78.402 10.212ZM73.111 11.954C73.111 15.178 73.033 17.83 69.497 19.741L67.976 18.506C68.405 18.363 68.873 18.142 69.354 17.778C70.992 16.634 71.304 15.269 71.304 13.137C71.304 12.721 71.291 12.383 71.226 11.954H73.111Z" fill="#545454"/>
</svg>
