<svg width="24" height="24" viewBox="0 0 24 24" fill="none" xmlns="http://www.w3.org/2000/svg">
<rect width="24" height="24" fill="#DFE5EB"/>
<path d="M11.1276 5.60104C10.3651 6.36383 9.92405 7.38037 9.67116 8.39997C9.41751 9.42414 9.34286 10.4933 9.34362 11.41C9.34283 11.4749 9.31676 11.5369 9.27095 11.5829C9.22515 11.6289 9.16322 11.6551 9.09834 11.6561C7.74932 11.6615 6.03925 11.8238 4.65595 12.4844C4.13645 12.7329 3.91936 13.2449 4.02676 13.7304C4.12807 14.1845 4.49522 14.5572 4.99187 14.6783C5.59744 14.8262 6.29976 15.0174 6.91066 15.2346C7.21611 15.3428 7.48957 15.4541 7.712 15.5653C7.94204 15.6812 8.08296 15.7787 8.15228 15.8488C8.22159 15.9174 8.31986 16.0584 8.43488 16.2885C8.54609 16.511 8.6573 16.7838 8.76547 17.0894C8.9818 17.6998 9.17223 18.4024 9.32 19.0074C9.44112 19.5043 9.8136 19.8723 10.2684 19.9729C10.7536 20.0811 11.2655 19.8639 11.5138 19.3442C12.1742 17.9627 12.3364 16.255 12.3441 14.9069C12.3441 14.7743 12.456 14.6623 12.5901 14.6623C13.5057 14.6623 14.5752 14.5876 15.5989 14.3339C16.6196 14.0801 17.6358 13.6389 18.399 12.8754C19.2522 12.0219 19.6696 10.8872 19.8593 9.78458C20.0497 8.67887 20.0185 7.55488 19.9316 6.66635C19.8702 5.99792 19.5768 5.37208 19.1024 4.89743C18.6279 4.42278 18.0023 4.12928 17.3341 4.06783C16.446 3.98172 15.3232 3.95048 14.2171 4.14023C13.1149 4.33073 11.9807 4.74833 11.1276 5.60104ZM15.426 6.28458C15.628 6.28458 15.8218 6.36486 15.9646 6.50777C16.1075 6.65068 16.1877 6.8445 16.1877 7.04661C16.1877 7.24871 16.1075 7.44253 15.9646 7.58544C15.8218 7.72835 15.628 7.80863 15.426 7.80863C15.224 7.80863 15.0302 7.72835 14.8874 7.58544C14.7445 7.44253 14.6643 7.24871 14.6643 7.04661C14.6643 6.8445 14.7445 6.65068 14.8874 6.50777C15.0302 6.36486 15.224 6.28458 15.426 6.28458Z" fill="#B1B1B1"/>
</svg>
