<svg width="24" height="24" viewBox="0 0 24 24" fill="none" xmlns="http://www.w3.org/2000/svg">
<rect width="24" height="24" fill="#0067C0"/>
<path d="M19.167 11.1543V17.2321C19.167 17.6526 19.0109 18.0127 18.6987 18.3124C18.3865 18.612 18.012 18.7616 17.575 18.7611H6.42597C5.98797 18.7611 5.61289 18.6113 5.30071 18.3116C4.98854 18.0119 4.83272 17.6521 4.83325 17.2321V11.1543C4.52798 10.8867 4.29252 10.5427 4.12688 10.1222C3.96123 9.70172 3.95778 9.24301 4.11652 8.74608L4.9527 6.14676C5.05888 5.81547 5.24815 5.54153 5.52051 5.32492C5.79286 5.10831 6.10743 5 6.4642 5H17.5336C17.892 5 18.2039 5.10525 18.4693 5.31574C18.7348 5.52624 18.9273 5.80324 19.0467 6.14676L19.8829 8.74608C20.0422 9.24301 20.039 9.69535 19.8733 10.1031C19.7077 10.5108 19.4728 10.8612 19.167 11.1543ZM13.7517 10.3515C14.1101 10.3515 14.3822 10.2336 14.568 9.99758C14.7538 9.7616 14.8268 9.49734 14.787 9.20479L14.349 6.52901H12.7961V9.35769C12.7961 9.62527 12.889 9.85793 13.0748 10.0557C13.2606 10.2534 13.4862 10.3521 13.7517 10.3515ZM10.1681 10.3515C10.4733 10.3515 10.7221 10.2527 10.9143 10.0549C11.1065 9.85717 11.2028 9.62476 11.2033 9.35769V6.52901H9.65044L9.21244 9.20479C9.15935 9.51059 9.2289 9.77817 9.42109 10.0075C9.61328 10.2369 9.86227 10.3515 10.1681 10.3515ZM6.62427 10.3515C6.86317 10.3515 7.07209 10.2687 7.251 10.1031C7.42992 9.93744 7.53955 9.7272 7.5799 9.47237L8.0179 6.52901H6.46499L5.66863 9.09011C5.589 9.34495 5.632 9.6189 5.79764 9.91196C5.96329 10.205 6.23883 10.3515 6.62427 10.3515ZM17.3751 10.3515C17.7601 10.3515 18.0388 10.205 18.2113 9.91196C18.3839 9.6189 18.4237 9.34495 18.3308 9.09011L17.4946 6.52901H15.9815L16.4195 9.47237C16.4593 9.7272 16.569 9.93744 16.7484 10.1031C16.9279 10.2687 17.1368 10.3515 17.3751 10.3515Z" fill="white"/>
</svg>
