<svg width="24" height="24" viewBox="0 0 24 24" fill="none" xmlns="http://www.w3.org/2000/svg">
<rect width="24" height="24" fill="#DFE5EB"/>
<path d="M19.1207 17.3098H17.069V16.1374H18.5345C18.6681 16.1374 18.7999 16.1069 18.92 16.0483C19.0401 15.9897 19.1452 15.9045 19.2275 15.7992C19.3097 15.6939 19.3668 15.5712 19.3945 15.4405C19.4223 15.3098 19.4198 15.1745 19.3874 15.0449L17.0426 5.66555C16.9949 5.47541 16.8851 5.30666 16.7306 5.18607C16.5761 5.06549 16.3857 5 16.1897 5C15.9936 5 15.8033 5.06549 15.6487 5.18607C15.4942 5.30666 15.3844 5.47541 15.3367 5.66555L12.9919 15.0449C12.9595 15.1745 12.9571 15.3098 12.9848 15.4405C13.0125 15.5712 13.0696 15.6939 13.1519 15.7992C13.2341 15.9045 13.3392 15.9897 13.4593 16.0483C13.5794 16.1069 13.7112 16.1374 13.8448 16.1374H15.3103V17.3098H10.6207V16.4305C10.8539 16.4305 11.0776 16.3379 11.2425 16.173C11.4074 16.0081 11.5 15.7844 11.5 15.5512C11.5 15.318 11.4074 15.0943 11.2425 14.9294C11.0776 14.7645 10.8539 14.6719 10.6207 14.6719V13.7926C10.8539 13.7926 11.0776 13.6999 11.2425 13.535C11.4074 13.3701 11.5 13.1465 11.5 12.9133C11.5 12.6801 11.4074 12.4564 11.2425 12.2915C11.0776 12.1266 10.8539 12.034 10.6207 12.034H4.46552C4.23231 12.034 4.00865 12.1266 3.84375 12.2915C3.67885 12.4564 3.58621 12.6801 3.58621 12.9133C3.58621 13.1465 3.67885 13.3701 3.84375 13.535C4.00865 13.6999 4.23231 13.7926 4.46552 13.7926V14.6719C4.23231 14.6719 4.00865 14.7645 3.84375 14.9294C3.67885 15.0943 3.58621 15.318 3.58621 15.5512C3.58621 15.7844 3.67885 16.0081 3.84375 16.173C4.00865 16.3379 4.23231 16.4305 4.46552 16.4305V17.3098H3.87931C3.6461 17.3098 3.42245 17.4025 3.25754 17.5674C3.09264 17.7323 3 17.9559 3 18.1891C3 18.4223 3.09264 18.646 3.25754 18.8109C3.42245 18.9758 3.6461 19.0684 3.87931 19.0684H19.1207C19.3539 19.0684 19.5776 18.9758 19.7425 18.8109C19.9074 18.646 20 18.4223 20 18.1891C20 17.9559 19.9074 17.7323 19.7425 17.5674C19.5776 17.4025 19.3539 17.3098 19.1207 17.3098ZM16.1897 9.50447L17.4082 14.3788H14.9711L16.1897 9.50447ZM6.22414 13.7926H8.86207V14.6719H6.22414V13.7926ZM6.22414 16.4305H8.86207V17.3098H6.22414V16.4305ZM10.6207 10.8615C11.0845 10.8615 11.5378 10.724 11.9234 10.4664C12.309 10.2087 12.6096 9.8425 12.787 9.41404C12.9645 8.98558 13.0109 8.51411 12.9205 8.05926C12.83 7.6044 12.6067 7.1866 12.2787 6.85867C11.9508 6.53074 11.533 6.30741 11.0781 6.21694C10.6233 6.12646 10.1518 6.1729 9.72336 6.35037C9.2949 6.52785 8.92869 6.82839 8.67104 7.21399C8.41338 7.5996 8.27586 8.05295 8.27586 8.51671C8.27586 9.1386 8.52291 9.73501 8.96265 10.1748C9.40239 10.6145 9.9988 10.8615 10.6207 10.8615ZM10.6207 7.9305C10.7366 7.9305 10.85 7.96488 10.9464 8.0293C11.0428 8.09371 11.1179 8.18526 11.1623 8.29238C11.2066 8.39949 11.2183 8.51736 11.1956 8.63107C11.173 8.74479 11.1172 8.84924 11.0352 8.93122C10.9532 9.0132 10.8488 9.06903 10.7351 9.09165C10.6213 9.11427 10.5035 9.10266 10.3964 9.05829C10.2892 9.01393 10.1977 8.93879 10.1333 8.84239C10.0689 8.74599 10.0345 8.63265 10.0345 8.51671C10.0345 8.36124 10.0962 8.21213 10.2062 8.1022C10.3161 7.99226 10.4652 7.9305 10.6207 7.9305Z" fill="#B1B1B1"/>
</svg>
