<svg width="60" height="72" viewBox="0 0 60 72" fill="none" xmlns="http://www.w3.org/2000/svg">
<path d="M60 30C60 46.572 30 72 30 72C30 72 0 46.572 0 30C0 13.428 13.428 0 30 0C46.572 0 60 13.428 60 30Z" fill="#FABBA7"/>
<circle cx="29.9999" cy="28.8" r="21.6" fill="white"/>
<mask id="mask0_79_3694" style="mask-type:luminance" maskUnits="userSpaceOnUse" x="21" y="18" width="19" height="22">
<path d="M24.6002 22.8C25.9257 22.8 27.0002 21.7255 27.0002 20.4C27.0002 19.0745 25.9257 18 24.6002 18C23.2747 18 22.2002 19.0745 22.2002 20.4C22.2002 21.7255 23.2747 22.8 24.6002 22.8Z" fill="#FABBA7"/>
<path d="M35.4 22.8C36.7255 22.8 37.8 21.7255 37.8 20.4C37.8 19.0745 36.7255 18 35.4 18C34.0745 18 33 19.0745 33 20.4C33 21.7255 34.0745 22.8 35.4 22.8Z" fill="#FABBA7"/>
<path d="M21.6001 26.4H27.6001L26.4001 39.6H22.8001L21.6001 26.4ZM32.4001 26.4H38.4001L39.6001 33H37.8001L37.2001 39.6H33.6001L33.0001 33H31.2001L32.4001 26.4Z" fill="#FABBA7"/>
</mask>
<g mask="url(#mask0_79_3694)">
<path d="M15.6001 14.4H44.4001V43.2H15.6001V14.4Z" fill="#FABBA7"/>
</g>
</svg>
